<svg id="visual" viewBox="0 0 900 600" width="900" height="600" xmlns="http://www.w3.org/2000/svg" xmlns:xlink="http://www.w3.org/1999/xlink" version="1.1"><rect x="0" y="0" width="900" height="600" fill="#002233"></rect><path d="M0 141L21.5 148C43 155 86 169 128.8 159.5C171.7 150 214.3 117 257.2 105.3C300 93.7 343 103.3 385.8 120.5C428.7 137.7 471.3 162.3 514.2 176.2C557 190 600 193 642.8 177.5C685.7 162 728.3 128 771.2 130C814 132 857 170 878.5 189L900 208L900 0L878.5 0C857 0 814 0 771.2 0C728.3 0 685.7 0 642.8 0C600 0 557 0 514.2 0C471.3 0 428.7 0 385.8 0C343 0 300 0 257.2 0C214.3 0 171.7 0 128.8 0C86 0 43 0 21.5 0L0 0Z" fill="#0066FF" stroke-linecap="round" stroke-linejoin="miter"></path></svg>